<svg xmlns="http://www.w3.org/2000/svg" viewBox="0 0 400 300"><rect width="400" height="300" fill="#dbeafe"/><circle cx="330" cy="50" r="95" fill="white" opacity=".3"/><path d="M65 300q10-100 135-105 125 5 135 105" fill="#2563eb"/><path d="M172 176v36q28 30 56 0v-36" fill="#e7aa80"/><ellipse cx="200" cy="124" rx="58" ry="72" fill="#f3c29d"/><path d="M142 126q-17-82 49-87 82-4 68 91l-20-36q-62 3-78-18z" fill="#25324c"/><path d="M179 143q21 17 42 0" fill="none" stroke="#a65f48" stroke-width="4" stroke-linecap="round"/><circle cx="180" cy="116" r="3" fill="#263451"/><circle cx="221" cy="116" r="3" fill="#263451"/><path d="m165 204 35 32 35-32-15 70h-40z" fill="white" opacity=".9"/><circle cx="61" cy="78" r="18" fill="white" opacity=".6"/><path d="M311 200h35m-17-17v35" stroke="white" stroke-width="5"/></svg>